<svg xmlns="http://www.w3.org/2000/svg" viewBox="0 0 64 64" fill="none" aria-hidden="true"><g fill="currentColor" opacity=".9"><path d="M32 6c2.5 7.8 6.2 11.5 14 14-7.8 2.5-11.5 6.2-14 14-2.5-7.8-6.2-11.5-14-14 7.8-2.5 11.5-6.2 14-14Z"/><path d="M15 38c1.5 4.7 3.7 6.9 8.4 8.4C18.7 47.9 16.5 50 15 55c-1.5-4.9-3.7-7.1-8.4-8.6C11.3 44.9 13.5 42.7 15 38Z" opacity=".75"/><path d="M49 38c1.5 4.7 3.7 6.9 8.4 8.4-4.7 1.5-6.9 3.7-8.4 8.6-1.5-4.9-3.7-7.1-8.4-8.6C45.3 44.9 47.5 42.7 49 38Z" opacity=".75"/></g></svg>